<?xml version="1.0" encoding="utf-8"?>
<!-- Generator: Adobe Illustrator 21.0.0, SVG Export Plug-In . SVG Version: 6.00 Build 0)  -->
<svg version="1.1" id="Capa_1" xmlns="http://www.w3.org/2000/svg" xmlns:xlink="http://www.w3.org/1999/xlink" x="0px" y="0px"
	 viewBox="0 0 382 113" style="enable-background:new 0 0 382 113;" xml:space="preserve">
<style type="text/css">
	.st0{fill:#FFCE74;}
	.st1{fill:#FFFFFF;stroke:#000000;stroke-miterlimit:10;}
	.st2{font-family:'SegoeUI-Bold';}
	.st3{font-size:48px;}
	.st4{stroke:#000000;stroke-miterlimit:10;}
</style>
<path d="M76.6,91.5H48.4C35.5,91.5,25,81,25,68.1V39.9C25,27,35.5,16.5,48.4,16.5h28.3C89.5,16.5,100,27,100,39.9v28.3
	C100,81,89.5,91.5,76.6,91.5z"/>
<path d="M154.1,91.5h-28.3c-12.9,0-23.4-10.5-23.4-23.4V39.9c0-12.9,10.5-23.4,23.4-23.4h28.3c12.9,0,23.4,10.5,23.4,23.4v28.3
	C177.5,81,167,91.5,154.1,91.5z"/>
<path d="M232.1,91.5h-28.3c-12.9,0-23.4-10.5-23.4-23.4V39.9c0-12.9,10.5-23.4,23.4-23.4h28.3c12.9,0,23.4,10.5,23.4,23.4v28.3
	C255.5,81,245,91.5,232.1,91.5z"/>
<path class="st0" d="M310.1,91.5h-28.3c-12.9,0-23.4-10.5-23.4-23.4V39.9c0-12.9,10.5-23.4,23.4-23.4h28.3
	c12.9,0,23.4,10.5,23.4,23.4v28.3C333.5,81,323,91.5,310.1,91.5z"/>
<text transform="matrix(1 0 0 1 44 73)" class="st1 st2 st3">Q</text>
<text transform="matrix(1 0 0 1 117 73)" class="st1 st2 st3">W</text>
<text transform="matrix(1 0 0 1 205 73)" class="st1 st2 st3">E</text>
<text transform="matrix(1 0 0 1 281 73)" class="st4 st2 st3">R</text>
</svg>
